<?xml version="1.0" encoding="utf-8"?>
<!-- Generator: Adobe Illustrator 21.1.0, SVG Export Plug-In . SVG Version: 6.00 Build 0)  -->
<svg version="1.1" id="Layer_1" xmlns="http://www.w3.org/2000/svg" xmlns:xlink="http://www.w3.org/1999/xlink" x="0px" y="0px"
	 viewBox="0 0 365.9 96.8" style="enable-background:new 0 0 365.9 96.8;" xml:space="preserve">
<style type="text/css">
	.st0{display:none;}
	.st1{display:inline;}
	.st2{fill:#FFFFFF;}
	.st3{fill:#005FA7;}
	.st4{fill:#C4212A;}
</style>
<g class="st0">
	<g class="st1">
		<path class="st2" d="M-3412.8,49.2c0-7.6,5.4-12.7,12.3-12.7c7.1,0,11.2,3.9,11.7,10.1l-4.7,0.2c-0.3-3.6-2.7-6-6.8-6
			c-4.5,0-7.4,3.3-7.4,8.4c0,5.3,3,8.6,7.7,8.6c3.5,0,6-2,6.7-5.1h-6.5v-3.6h11.1v12.4h-4.3v-3.6c-1.2,2.7-4.3,4.1-7.8,4.1
			C-3407.7,61.9-3412.8,56.8-3412.8,49.2z"/>
		<path class="st2" d="M-3381.2,36.9v24.5h-4.7V36.9H-3381.2z"/>
		<path class="st2" d="M-3370.5,61.9c-5.3,0-9-3.7-9-9c0-5.3,3.7-9.1,9-9.1c5.3,0,9.1,3.7,9.1,9.1
			C-3361.5,58.2-3365.2,61.9-3370.5,61.9z M-3370.5,58.4c2.9,0,4.4-2.3,4.4-5.5c0-3.3-1.5-5.5-4.4-5.5c-2.8,0-4.3,2.3-4.3,5.5
			C-3374.8,56.1-3373.4,58.4-3370.5,58.4z"/>
		<path class="st2" d="M-3356.2,61.4h-3.6V36.9h4.7v10.7c0.8-2.1,2.8-3.8,5.9-3.8c5.1,0,7.7,4,7.7,9.1c0,5.1-2.7,9-7.8,9
			c-3,0-5.2-1.6-6.1-3.8L-3356.2,61.4z M-3355.2,53.2c0,3.2,1.9,5.1,4.5,5.1c3,0,4.5-2.1,4.5-5.4c0-3.3-1.5-5.4-4.5-5.4
			c-2.6,0-4.5,1.9-4.5,5.1V53.2z"/>
		<path class="st2" d="M-3324.7,57.3c0,0.9,0.5,1.3,1.2,1.3c0.5,0,0.9-0.1,1.4-0.4v2.5c-0.7,0.6-1.7,1.1-3.2,1.1
			c-1.9,0-3.2-1.1-3.6-3c-1,2-3.3,3-5.8,3c-3.6,0-5.8-1.8-5.8-4.7c0-3.3,2.6-4.6,6.5-5.4l4.7-0.9v-0.4c0-1.9-1-3.1-3-3.1
			c-1.9,0-3,1.2-3.4,2.8l-4.2-0.4c0.6-3.5,3.3-6,7.8-6c4.4,0,7.4,2.1,7.4,6.6V57.3z M-3329.3,53.6l-3.2,0.7c-2,0.4-3.5,0.8-3.5,2.5
			c0,1.2,0.9,1.9,2.4,1.9c2.5,0,4.3-1.9,4.3-4.6V53.6z"/>
		<path class="st2" d="M-3316.2,36.9v24.5h-4.7V36.9H-3316.2z"/>
		<path class="st2" d="M-3290.2,61.4h-17.3V36.9h16.9v4h-12.1v6h9.3v4h-9.3v6.5h12.5V61.4z"/>
		<path class="st2" d="M-3276.1,58.2c-0.8,2.1-2.9,3.7-5.9,3.7c-5.1,0-7.7-4-7.7-9c0-5.1,2.6-9.1,7.7-9.1c3,0,5.1,1.7,5.9,3.8V36.9
			h4.7v24.5h-4.7V58.2z M-3276,52.5c0-3.1-1.9-5.1-4.6-5.1c-2.9,0-4.4,2.1-4.4,5.4c0,3.2,1.5,5.4,4.4,5.4c2.6,0,4.6-1.9,4.6-5.1
			V52.5z"/>
		<path class="st2" d="M-3257.3,44.3h4.7v17.2h-4.7v-2.8c-0.9,2-2.9,3.3-5.5,3.3c-4.6,0-6.1-3.1-6.1-6.9V44.3h4.7v9.8
			c0,2.6,1,4.2,3.3,4.2c2.3,0,3.7-1.9,3.7-4.8V44.3z"/>
		<path class="st2" d="M-3241.9,43.8c5.1,0,7.9,3.3,8.3,7.5l-3.9,0.3c-0.4-2.6-1.8-4.2-4.4-4.2c-2.6,0-4.4,1.9-4.4,5.5
			c0,3.5,1.8,5.4,4.4,5.4c2.6,0,4-1.6,4.4-4.2l3.9,0.4c-0.4,4.1-3.2,7.5-8.3,7.5c-5.3,0-9.1-3.6-9.1-9
			C-3251,47.4-3247.2,43.8-3241.9,43.8z"/>
		<path class="st2" d="M-3216.4,57.3c0,0.9,0.5,1.3,1.2,1.3c0.5,0,0.9-0.1,1.4-0.4v2.5c-0.7,0.6-1.7,1.1-3.2,1.1
			c-1.9,0-3.2-1.1-3.6-3c-1,2-3.3,3-5.8,3c-3.6,0-5.8-1.8-5.8-4.7c0-3.3,2.6-4.6,6.5-5.4l4.7-0.9v-0.4c0-1.9-1-3.1-3-3.1
			c-1.9,0-3,1.2-3.4,2.8l-4.2-0.4c0.6-3.5,3.3-6,7.8-6c4.4,0,7.4,2.1,7.4,6.6V57.3z M-3221,53.6l-3.2,0.7c-2,0.4-3.5,0.8-3.5,2.5
			c0,1.2,0.9,1.9,2.4,1.9c2.5,0,4.3-1.9,4.3-4.6V53.6z"/>
		<path class="st2" d="M-3212.3,47.5h-2.5v-2.8l1.2-0.2c1.7-0.3,2.1-1.1,2.5-2.7l0.5-2.3h2.8v4.7h4.7v3.3h-4.7V56
			c0,1.5,0.7,2.1,2.1,2.1c0.9,0,1.9-0.4,2.9-0.8v3.1c-1.2,0.9-2.6,1.5-4.7,1.5c-2.6,0-4.9-1.2-4.9-4.8V47.5z"/>
		<path class="st2" d="M-3200.6,36.9h4.8v4.6h-4.8V36.9z M-3195.8,44.3v17.2h-4.7V44.3H-3195.8z"/>
		<path class="st2" d="M-3185,61.9c-5.3,0-9-3.7-9-9c0-5.3,3.7-9.1,9-9.1c5.3,0,9.1,3.7,9.1,9.1C-3175.9,58.2-3179.6,61.9-3185,61.9
			z M-3185,58.4c2.9,0,4.4-2.3,4.4-5.5c0-3.3-1.5-5.5-4.4-5.5c-2.8,0-4.3,2.3-4.3,5.5C-3189.3,56.1-3187.8,58.4-3185,58.4z"/>
		<path class="st2" d="M-3169.6,61.4h-4.7V44.3h4.7v2.8c0.9-1.9,3-3.3,5.6-3.3c4.6,0,6.3,3.1,6.3,6.9v10.7h-4.7v-9.8
			c0-2.6-1.1-4.2-3.3-4.2c-2.4,0-3.9,1.9-3.9,4.7V61.4z"/>
	</g>
	<g class="st1">
		<path class="st2" d="M-3410.1,21.7V6.9h4.8v14.4c0,4.2,1.8,6.4,5.6,6.4c3.9,0,5.6-2.2,5.6-6.3V6.9h4.8v14.9
			c0,7.1-4.6,9.9-10.5,9.9C-3405.5,31.6-3410.1,28.8-3410.1,21.7z"/>
		<path class="st2" d="M-3388.3,26h5.2v5.2h-5.2V26z"/>
		<path class="st2" d="M-3377.7,22.3c0.2,3.8,2.9,5.5,6.3,5.5c3,0,4.9-1.2,4.9-3.2c0-1.9-1.5-2.5-4-3.1l-4.6-0.8
			c-3.8-0.7-6.4-2.8-6.4-6.8c0-4.6,3.6-7.5,9.3-7.5c6.4,0,10,3.3,10,8.7l-4.4,0.2c-0.2-3.3-2.3-5.1-5.6-5.1c-2.9,0-4.5,1.3-4.5,3.4
			c0,1.8,1.3,2.4,3.5,2.8l4.5,0.8c4.8,0.9,7,3.2,7,7.1c0,4.8-4.1,7.4-9.6,7.4c-6.3,0-10.8-3.2-10.8-9.1L-3377.7,22.3z"/>
		<path class="st2" d="M-3360.1,26h5.2v5.2h-5.2V26z"/>
		<path class="st2" d="M-3336,23.1V6.9h4.5v24.3h-3.9l-12.4-17.1v17.1h-4.5V6.9h4.8L-3336,23.1z"/>
		<path class="st2" d="M-3312.8,25.6c-0.9,3.8-3.8,6-8.2,6c-5.3,0-9-3.4-9-8.7c0-5.4,3.8-9.2,8.9-9.2c5.6,0,8.4,3.9,8.4,8.5v1.7
			h-12.8c0.2,2.5,2.1,4.3,4.6,4.3c2.3,0,3.6-1,4.3-2.9L-3312.8,25.6z M-3317.2,20.9c-0.2-2-1.4-3.9-3.9-3.9c-2.5,0-3.8,1.7-4.2,3.9
			H-3317.2z"/>
		<path class="st2" d="M-3294.9,25.5h0.2l3.5-11.4h4.2l-5.4,17h-4.5l-3.1-11.2h-0.2l-3.1,11.2h-4.5l-5.4-17h4.6l3.6,11.4h0.2
			l3.1-11.4h3.7L-3294.9,25.5z"/>
		<path class="st2" d="M-3283.7,25.4c0.3,2,1.8,3.1,4.2,3.1c1.7,0,3.1-0.6,3.1-1.8c0-1.2-0.8-1.7-2.5-1.9l-2.7-0.5
			c-3.6-0.6-5.6-1.9-5.6-5.1c0-3.2,2.7-5.5,7.1-5.5c4.7,0,7.5,2.1,7.8,5.9l-3.8,0.2c-0.3-1.9-1.6-2.9-4.1-2.9
			c-1.7,0-2.7,0.7-2.7,1.9c0,0.9,0.6,1.5,1.9,1.7l3.2,0.5c3.6,0.6,5.7,2.1,5.7,5.3c0,3.5-3,5.4-7.4,5.4c-4.4,0-7.8-1.9-8.1-6.1
			L-3283.7,25.4z"/>
	</g>
</g>
<g>
	<g>
		<g>
			<rect x="93.4" y="2.6" class="st3" width="269.9" height="64.9"/>
			<rect x="93.4" y="69.9" class="st4" width="269.9" height="4.9"/>
			<path class="st2" d="M123.5,28.1c0.2-0.6,0.3-1.2,0.3-1.9c0-0.5,0-15.6,0-15.6h-4.9c0,0,0,14.5,0,15c0,2.3-2,3.7-4.8,3.7
				c-3.2,0-5-1.4-5-3.7c0-0.4,0-14.9,0-14.9h-4.9c0,0,0,14.9,0,15.4c0,5.3,4.2,7.4,9.8,7.4c3.8,0,6.9-1.1,8.5-3.2V33h4.7v-4.9H123.5
				z"/>
			<path class="st2" d="M148.6,28.1c0.1-0.5,0.2-1,0.2-1.6c0-3.8-2.3-5.7-6.8-6.5c-0.5-0.1-2-0.4-3.1-0.6c-3.7-0.7-5-1.4-5-3
				c0-1.3,0.7-2.1,4.5-2.1c2.8,0,4.1,0.7,4.7,1.9c0.2,0.3,0.3,0.9,0.3,1.1h5.1c0-0.6-0.2-1.4-0.5-2.2c-1.1-2.8-3.8-4.8-9.4-4.8
				c-6.6,0-9.7,2.6-9.7,6.4c0,3.7,2.7,5.7,7.1,6.6c1,0.2,2.6,0.5,3.3,0.6c3.6,0.7,4.6,1.3,4.6,3.2c0,1.5-1.2,2.4-4.6,2.4
				c-3,0-4.5-0.6-5.1-1.9c-0.2-0.3-0.3-1-0.3-1.4h-5.1c0,0.5,0.1,1.6,0.3,2.3c0.9,2.8,3.4,4.9,10.1,4.9c4.6,0,7.5-1.4,8.8-3.6V33
				h4.7v-4.9H148.6z"/>
			<path class="st2" d="M168.8,33l-9-15.2V33h-4.7V10.5h5.7l8.6,14.5V10.5h4.7V33H168.8z"/>
			<path class="st2" d="M191.4,31.8c-1.4,0.9-3.3,1.4-5.8,1.4c-3.5,0-6.3-1-7.8-3.4c-0.8-1.2-1.2-2.8-1.2-4.7c0-1.8,0.5-3.4,1.4-4.6
				c1.5-2.2,4.2-3.5,7.6-3.5c3.6,0,6,1.3,7.4,3.3c1.2,1.7,1.6,3.9,1.3,6.3h-13.2c0,0.7,0.3,1.2,0.9,1.8c0.7,0.7,1.9,1.2,3.6,1.2
				c1.3,0,2.2-0.2,2.9-0.5c0.8-0.4,1.2-0.9,1.3-1.2h4.5C193.9,29.4,193,30.8,191.4,31.8z M189.1,21.8c-0.7-0.7-1.7-1.2-3.4-1.2
				c-1.6,0-2.8,0.4-3.6,1.1c-0.5,0.5-1,1.4-1,1.9h8.7C189.8,23.2,189.6,22.4,189.1,21.8z"/>
			<path class="st2" d="M217.2,33h-5.4c0,0-3.1-9-3.1-9.5c0-0.2-0.2-1.6-0.2-1.6s-0.2,1.4-0.2,1.6c0,0.5-3.1,9.5-3.1,9.5h-5.4
				l-5.6-15.6h4.7l3.7,11.6l3.4-11.6h5.1l3.5,11.6l3.7-11.6h4.5L217.2,33z"/>
			<path class="st2" d="M231.7,33.3c-5.3,0-7.8-1.1-8.4-3.6c-0.1-0.6-0.2-1.1-0.2-1.6h4.5c0,0.2,0,0.5,0.1,0.8
				c0.3,0.7,1.5,0.9,3.9,0.9c2.6,0,3.4-0.5,3.4-1.4c0-0.9-0.9-1.1-3.2-1.4c-0.6-0.1-2.5-0.4-3.4-0.5c-3.4-0.5-5.1-2-5.1-5
				c0-2.8,2.5-4.6,7.5-4.6c4.3,0,7,1.1,7.8,3.4c0.2,0.6,0.3,1.6,0.3,1.9h-4.4c0-0.2-0.1-0.7-0.2-0.9c-0.3-0.4-1.1-0.8-3.3-0.8
				c-2.5,0-3.2,0.4-3.2,1.1c0,0.7,0.5,0.9,2.7,1.3c0.9,0.1,3.1,0.5,3.6,0.5c3.7,0.6,5.4,2,5.4,4.9C239.5,31.6,237.1,33.3,231.7,33.3
				z"/>
			<path class="st2" d="M120.2,59.5l-0.2-2.1c-1.2,1.4-2.9,2.4-6.5,2.4c-3.5,0-6.3-1.2-8-3.3c-1.2-1.5-2.1-4.4-2.1-8.2
				c0-3.3,0.4-5.7,2-8c1.4-2,4.2-3.6,8.7-3.6c4.8,0,7.5,1.6,8.9,3.9c0.8,1.5,1.1,2.9,1.1,4.1h-4.8c0-0.7-0.4-1.8-1.1-2.5
				c-0.8-0.8-2.1-1.4-3.9-1.4c-2,0-3.4,0.5-4.4,1.6c-1,1.1-1.5,2.9-1.5,6s0.5,4.7,1.4,5.8c0.7,0.9,2.4,1.6,4.5,1.6
				c2.9,0,4.9-1.4,5.3-3.3v-2h-6.5v-4h11c0,0,0,5.6,0,6.9c0,2.8,0,6,0,6H120.2z"/>
			<path class="st2" d="M126.8,59.4c-0.1-0.1-0.1-0.3-0.1-1.3c0-2.2,0-16.6,0-19.6c0-0.8,0-1.5-0.1-1.7h4.6c0.1,0.2,0.1,0.8,0.1,1.5
				c0,2.6,0,15.8,0,19.7c0,0.8,0,1.3,0.1,1.4H126.8z"/>
			<path class="st2" d="M149.5,57c-1.6,1.6-4,2.6-7.1,2.6c-3.1,0-5.5-0.9-7.1-2.5c-1.3-1.4-2-3.2-2-5.6c0-2.1,0.7-4.1,2-5.5
				c1.5-1.6,3.8-2.6,7.1-2.6c3.2,0,5.5,0.9,7,2.4c1.4,1.4,2,3.5,2,5.7C151.5,53.7,150.8,55.6,149.5,57z M146.2,48.5
				c-0.7-0.8-1.9-1.3-3.7-1.3c-1.8,0-3,0.6-3.7,1.5c-0.6,0.7-0.8,1.6-0.8,2.7c0,1.2,0.3,2.2,0.7,2.8c0.8,1.1,2.1,1.5,3.8,1.5
				c1.6,0,3-0.5,3.7-1.5c0.5-0.7,0.8-1.6,0.8-2.8C147,50.3,146.8,49.3,146.2,48.5z"/>
			<path class="st2" d="M169.5,45.8c1.2,1.3,1.9,3.1,1.9,5.5c0,2.6-0.8,4.5-2,5.9c-1.2,1.4-3.5,2.3-5.8,2.3c-2.3,0-4.5-0.6-5.7-2
				l-0.3,1.9h-4.2V36.7h4.5V46c0.6-1.3,2.9-2.6,5.7-2.6C166.2,43.4,168.2,44.2,169.5,45.8z M158.4,49.2c-0.4,0.7-0.7,1.5-0.7,2.4
				c0,1,0.2,1.8,0.7,2.5c0.7,1.1,2,1.6,3.9,1.6c1.8,0,3.1-0.6,3.8-1.7c0.4-0.7,0.6-1.5,0.6-2.5c0-0.9-0.2-1.7-0.6-2.4
				c-0.7-1.1-1.9-1.8-3.8-1.8C160.5,47.4,159.1,48.1,158.4,49.2z"/>
			<path class="st2" d="M185.7,59.4c-0.2,0-0.5-0.3-0.5-1.6c-1.2,1.1-3.1,1.8-6.4,1.8c-3.6,0-5.9-1.4-6.1-4c0-0.2,0-0.7,0-1
				c0.2-2.6,2.6-4.8,8.1-4.9c1.3,0,2.7,0,4.2,0.2c0-0.3,0-0.7-0.1-1.2c-0.2-1-1.3-1.7-3.2-1.7c-1.6,0-2.6,0.1-3.2,0.7
				c-0.5,0.5-0.7,1.1-0.7,1.5h-4.3c0-0.9,0.4-2.2,0.9-3c1.5-2,3.7-2.8,7.2-2.8c4.8,0,7.2,1.6,7.6,4.3c0.1,0.8,0.2,2.9,0.2,4.1
				c0,1,0,3,0,4.2c0,1.3,0.1,3,0.3,3.4H185.7z M182.4,52.4c-1.1,0-2.6,0-3.8,0.5c-0.7,0.3-1.2,0.9-1.2,1.6c0,0.5,0.1,0.7,0.4,1.1
				c0.4,0.5,1.5,0.7,2.6,0.7c1,0,2.2-0.2,3-0.6c0.7-0.4,1.4-0.8,1.6-1.8c0.1-0.5,0.2-1.1,0.2-1.3C184.4,52.5,183.5,52.4,182.4,52.4z
				"/>
			<path class="st2" d="M192.2,59.4c-0.1-0.1-0.1-0.3-0.1-1.3c0-2.2,0-16.6,0-19.6c0-0.8,0-1.5-0.1-1.7h4.6c0.1,0.2,0.1,0.8,0.1,1.5
				c0,2.6,0,15.8,0,19.7c0,0.8,0,1.3,0.1,1.4H192.2z"/>
			<path class="st2" d="M204.4,59.5V37.1h17.1v4.2h-12.3v4.9h11.9v4.3h-11.9v4.9h12.5v4.2H204.4z"/>
			<path class="st2" d="M236.3,45.8V37h4.6c0,0,0,16.9,0,20.5c0,0.8,0.1,2,0.1,2h-4.2l-0.5-2.3c-0.6,1.3-2.7,2.5-5.7,2.5
				c-2.6,0-4.5-0.8-5.8-2.3c-1.1-1.3-1.8-3.1-1.8-5.5c0-2.6,0.7-4.4,1.9-5.8c1.2-1.3,3.4-2.4,5.7-2.4
				C232.9,43.8,235.1,44.3,236.3,45.8z M228.5,49c-0.6,0.7-0.9,1.7-0.9,2.8c0,1,0.2,1.8,0.6,2.5c0.7,1,1.9,1.7,3.8,1.7
				c1.4,0,2.5-0.5,3.2-1.2c0.7-0.7,1.1-1.8,1.1-3c0-1.3-0.4-2.4-1.1-3.1c-0.7-0.7-1.8-1.1-3.2-1.1C230.5,47.7,229.3,48.2,228.5,49z"
				/>
			<path class="st2" d="M259.2,59.5h-4.4l-0.1-2.2c-1.1,1.8-3.4,2.4-5.7,2.4c-3.5,0-5.9-1.3-5.9-5.1c0-9.1,0-10.6-0.1-10.7
				c0,0,4.7,0,4.6,0c0.1,0,0.1,6.7,0.1,9.6c0,2.1,1.4,2.8,3.2,2.8c2.3,0,3.7-1.1,3.7-3v-9.3h4.6c0,0,0,10.5,0,13.2
				C259.2,58.5,259.2,59.4,259.2,59.5z"/>
			<path class="st2" d="M274.2,50.2c0-0.5-0.2-1.1-0.7-1.6c-0.6-0.7-1.7-1.2-3.4-1.2c-1.5,0-2.6,0.3-3.4,1.1
				c-0.7,0.7-1.1,1.9-1.1,3.2c0,1.4,0.2,2.6,1,3.3c0.7,0.7,1.9,1,3.5,1c1.7,0,2.8-0.4,3.4-1c0.5-0.5,0.6-1.1,0.6-1.5h4.4
				c0,1.4-0.5,3.1-1.9,4.3c-1.3,1.2-3.4,2-6.6,2c-2.9,0-5.1-0.6-6.6-1.9c-1.6-1.4-2.4-3.5-2.4-6.2c0-2.6,0.8-4.5,2.1-5.8
				c1.6-1.6,4.1-2.3,6.7-2.3c5,0,7.2,1.9,8.1,3.9c0.4,0.9,0.5,1.8,0.5,2.7H274.2z"/>
			<path class="st2" d="M292.9,59.4c-0.2,0-0.4-0.3-0.4-1.6c-1.1,1.1-3,1.7-6.2,1.7c-3.5,0-5.8-1.4-6-4c0-0.2,0-0.7,0-1
				c0.2-2.5,2.5-4.7,7.9-4.8c1.3,0,2.6,0,4.1,0.2c0-0.3,0-0.7-0.1-1.1c-0.2-1-1.3-1.6-3.1-1.6c-1.5,0-2.5,0.1-3.1,0.7
				c-0.5,0.5-0.7,1-0.7,1.5h-4.3c0-0.8,0.4-2.2,0.9-2.9c1.5-2,3.7-2.7,7.1-2.7c4.7,0,7,1.5,7.4,4.2c0.1,0.8,0.2,2.8,0.2,4.1
				c0,0.9,0,2.9,0,4.1c0,1.3,0.1,2.9,0.3,3.3H292.9z M289.7,52.6c-1.1,0-2.6,0-3.7,0.5c-0.7,0.3-1.2,0.9-1.2,1.5
				c0,0.4,0.1,0.7,0.4,1c0.4,0.4,1.5,0.7,2.6,0.7c0.9,0,2.2-0.2,3-0.6c0.7-0.4,1.4-0.8,1.6-1.7c0.1-0.5,0.2-1.1,0.2-1.3
				C291.6,52.7,290.7,52.6,289.7,52.6z"/>
			<path class="st2" d="M304.5,47.8c0,1.7,0,4.5,0,6.1c0,1.5,0.6,1.9,2.1,1.9c0.6,0,1.5-0.1,2-0.2v3.6c-0.8,0.2-2.1,0.3-3.7,0.3
				c-2.5,0-4.9-1-4.9-4.3c0-2.1,0-5.2,0-7.4H298v-3.8h1.9c0.1-0.4,0.1-3.3,0.1-3.3l4.3,0c0,0,0,2.8,0,3.3h4.3v3.8H304.5z"/>
			<path class="st2" d="M310.9,42.3v-4.1h4.8v4.1H310.9z M315.8,59.6h-4.6c-0.2-0.1-0.2-0.4-0.2-1.6v-14h4.7v13.9
				C315.6,59.1,315.6,59.5,315.8,59.6z"/>
			<path class="st2" d="M333.6,57.3c-1.6,1.6-4,2.6-7.1,2.6c-3.1,0-5.5-0.9-7.1-2.5c-1.3-1.4-2-3.2-2-5.6c0-2.1,0.7-4.1,2-5.5
				c1.5-1.6,3.8-2.6,7.1-2.6c3.2,0,5.5,0.9,7,2.4c1.4,1.4,2,3.5,2,5.7C335.6,54,334.9,55.9,333.6,57.3z M330.3,48.8
				c-0.7-0.8-1.9-1.3-3.7-1.3c-1.8,0-3,0.6-3.7,1.5c-0.6,0.7-0.8,1.6-0.8,2.7c0,1.2,0.3,2.2,0.7,2.8c0.8,1.1,2.1,1.5,3.8,1.5
				c1.6,0,3-0.5,3.7-1.5c0.5-0.7,0.8-1.6,0.8-2.8C331.2,50.5,330.9,49.5,330.3,48.8z"/>
			<path class="st2" d="M353.5,59.6H349c-0.2,0-0.2-0.5-0.2-8.8c0-2-1-3.1-3.1-3.1c-2,0-3.7,1.1-3.7,3.1v8.8h-4.6V43.9h4.4v2.3
				c0.9-1.8,3.2-2.6,5.7-2.6c4.2,0,6,2,6,6C353.4,58.9,353.4,59.5,353.5,59.6z"/>
		</g>
		<path class="st2" d="M363.3,0.1H93.4h-2.6v2.6v72.1v2.6h2.6h269.9h2.6v-2.6V2.7V0.1H363.3z M93.4,2.7h269.9v64.8H93.4V2.7z
			 M93.4,74.8v-4.9h269.9v4.9H93.4z"/>
	</g>
	<g>
		<path class="st4" d="M12.1,37.7c-0.1-4.5-0.7-8.9-1.6-13c-2.6,0.3-5.2,0.5-7.9,0.5v12.5L12.1,37.7z"/>
		<path class="st4" d="M9.3,20.1C7.7,14.7,5.5,9.8,2.7,5.8c-0.1,0-0.1,0-0.2,0v14.6C4.8,20.4,7.1,20.3,9.3,20.1z"/>
		<path class="st4" d="M10.5,55.7c0.9-4.2,1.5-8.7,1.6-13.3l-9.6,0v12.8C5.2,55.3,7.9,55.4,10.5,55.7z"/>
		<path class="st4" d="M2.8,74.4c2.7-4,4.9-8.8,6.5-14.1C7.1,60.1,4.8,60,2.5,60v14.4C2.6,74.4,2.7,74.4,2.8,74.4z"/>
		<path class="st4" d="M26.4,15.9c-4.7-4.8-10.9-8.2-17.8-9.5c2.2,3.9,4,8.3,5.3,13C18.4,18.6,22.6,17.5,26.4,15.9z"/>
		<path class="st4" d="M43.5,2.7c15.9,17.8,19.1,44.5,6.1,65.9c-5.2,8.5-12.3,15.2-20.8,19.9L40.5,94l37.9-18.1V2.7H43.5z"/>
		<path class="st4" d="M41.2,40c0,19.4-14.2,35.6-32.7,38.6l15.1,7.2c9.1-4.2,16.8-11,22.1-19.7c12.7-20.9,8.6-47.4-8.5-63.6H13
			C29.2,7.3,41.1,22.3,41.2,40z"/>
		<path class="st4" d="M16.8,42.5c-0.1,4.8-0.7,9.5-1.6,13.9c5.1,0.9,10,2.3,14.4,4.2c3.8-5.1,6.2-11.4,6.7-18.1L16.8,42.5z"/>
		<path class="st4" d="M8.8,73.8c6.8-1.4,12.9-4.7,17.6-9.4c-3.8-1.5-8-2.6-12.3-3.3C12.7,65.7,10.9,69.9,8.8,73.8z"/>
		<path class="st4" d="M16.8,37.7l19.5,0c-0.5-6.7-2.9-12.8-6.6-17.9c-4.5,1.9-9.4,3.4-14.5,4.3C16.1,28.4,16.7,33,16.8,37.7z"/>
		<path class="st2" d="M78.4,0H2.6H0v2.6v73.2v1.6l1.5,0.7l37.9,18.2l1.1,0.5l1.1-0.5l37.9-18.2l1.5-0.7v-1.6V2.6V0H78.4z
			 M15.2,56.4c1-4.5,1.5-9.1,1.6-13.9l19.5,0c-0.5,6.8-2.9,13-6.7,18.1C25.2,58.7,20.3,57.3,15.2,56.4z M26.3,64.4
			c-4.7,4.7-10.8,8.1-17.6,9.4c2.2-3.8,3.9-8.1,5.3-12.7C18.4,61.8,22.5,62.9,26.3,64.4z M16.8,37.7c-0.1-4.7-0.7-9.3-1.7-13.7
			c5.1-0.9,10-2.3,14.5-4.3c3.8,5.1,6.2,11.3,6.6,17.9L16.8,37.7z M14,19.4c-1.3-4.7-3.1-9.1-5.3-13c6.9,1.3,13,4.7,17.8,9.5
			C22.6,17.5,18.4,18.6,14,19.4z M2.7,5.8c2.8,4,5,8.9,6.6,14.3c-2.2,0.2-4.4,0.3-6.7,0.4L2.7,5.8C2.6,5.8,2.7,5.8,2.7,5.8z
			 M10.5,24.7c0.9,4.2,1.5,8.5,1.6,13l-9.5,0V25.2C5.3,25.2,7.9,25,10.5,24.7z M12.1,42.5c-0.1,4.6-0.7,9-1.6,13.3
			c-2.6-0.3-5.2-0.4-7.9-0.5V42.5L12.1,42.5z M9.3,60.4c-1.6,5.3-3.8,10-6.5,14.1c-0.1,0-0.1,0-0.2,0V60C4.9,60,7.1,60.1,9.3,60.4z
			 M41.2,40C41.1,22.3,29.2,7.3,13,2.6h24.1c17.1,16.2,21.3,42.7,8.5,63.6c-5.3,8.7-12.9,15.5-22,19.7L8.6,78.6
			C27.1,75.5,41.2,59.4,41.2,40z M78.4,75.8L40.5,93.9l-11.7-5.6c8.5-4.6,15.6-11.4,20.7-19.8c13-21.4,9.8-48.2-6.1-65.9h34.9V75.8z
			"/>
	</g>
</g>
</svg>
