<svg xmlns="http://www.w3.org/2000/svg" viewBox="0 0 208.18 72.89"><defs><style>.cls-1{fill:#d31245;}.cls-2{fill:#004b8d;}</style></defs><title>Asset 19</title><g id="Layer_2" data-name="Layer 2"><g id="Layer_1-2" data-name="Layer 1"><path class="cls-1" d="M10.41,35.24c0-2.82.22-3.78,5.52-3.78,10.6.06,18.86,7.62,18.86,20.95,0,13.86-7.53,18.42-15.45,18.42-2.51,0-6.75-.72-8.6-2.7-.5-.54-.33-3.42-.33-4.38ZM6,66.27C6,72,2,70.48,2,71.85c0,.37.11.6.56.6s5.76-.24,6.26-.24c2.85,0,5.7.24,8.54.24,15.46,0,21.54-9.54,21.54-23.34C38.92,38,29.21,30,19.34,30c-4.8,0-8.43.25-12.12.25-1.68,0-3.3-.25-5-.25-.34,0-.78.18-.78.6,0,1.62,4.57-.3,4.57,5.82Z"/><path class="cls-1" d="M72.92,33.74c-1.45-2.58-4.18-1.86-4.18-2.88,0-.42.33-.9.72-.9,1.51,0,2.57.24,6.36.24,1.84,0,3.35-.24,3.91-.24.39,0,1.06.06,1.06.6,0,1-2.62,1.08-2.62,2.82a5.17,5.17,0,0,0,1,2.47l6.76,11.58c.45.72.79,1.08,1.12,1.08s.62-.42,1.07-1.2l5.74-10A6,6,0,0,0,95,34c0-2.94-4.18-1.68-4.18-3.12,0-.78.56-.9,1.17-.9,1.34,0,2.74.24,4.07.24,1.62,0,3.37.14,5,.14.34,0,.49,0,.49.34,0,.66-1,.9-1.34,1.14-1.5,1-2.23,2.64-3.12,4.15L89.29,49.05c-.9,1.5-1.34,1.8-1.34,2.7V66.46c0,5.22,4.57,3.54,4.57,5.4,0,.54-.5.6-1.28.6s-4.08-.25-6.15-.25c-2.52,0-4.53.25-5,.25s-.83-.06-.83-.72c0-1.68,4.29-.12,4.29-4.38V52.83a6.45,6.45,0,0,0-1.28-3.06Z"/><path class="cls-1" d="M111.42,36c0-.42.23-2.7-.55-2.77H101.8c-3.46,0-3.72.74-5.59,4-.31.54-1.53,1.81-2.25,1.81C93.63,39.06,95,38,95,37.69l1-3.88c.06-.72-.93-3.61.07-3.61h17.07c10.11,0,15.25-.24,16.37-.24,1.27,0,1.54.36,1.6,1.74l.27,4.81c.06.6.12,1.32-.6,1.32-2.05,0,.94-4.57-4.73-4.57h-8c-2.51,0-2.23-.24-2.23,3V66.82c0,5,4.52,3.06,4.52,4.92,0,.18.06.72-.5.72-1.34,0-2.9-.25-4.52-.25a67.47,67.47,0,0,0-7.66.25c-.5,0-.66-.18-.66-.78,0-1.44,4.39-.84,4.39-4.44Z"/><path class="cls-1" d="M148.17,31.45c10.89,0,17.76,10.62,17.76,21.53,0,11.09-6.54,18.11-14.69,18.11-11.05,0-17.81-10.74-17.81-21.83C133.43,39.79,138.79,31.45,148.17,31.45Zm.73,41.44c12.45,0,21.09-8.7,21.09-22.19,0-12.41-8.75-21.24-20.14-21.24S129.37,38.53,129.37,51C129.37,63.65,136.78,72.89,148.9,72.89Z"/><path class="cls-1" d="M174.24,40.66c0-12.49-6.75-9-6.75-11.23,0-.36.56-.6.83-.6.9,0,1.73.25,2.63.25s1.73-.25,2.56-.25c.62,0,1.12,1,1.45,1.38L201.59,62.1c.33.42.56.66.67.66s.17-.18.17-.66V37c0-7.87-6.21-5.59-6.21-7.57a.56.56,0,0,1,.62-.6c1.67,0,3.3.25,5.08.25s4.28-.25,5.62-.25a.5.5,0,0,1,.55.54c0,1.56-3.29.48-3.29,4.87V69c0,1.74-.05,2.58-.5,2.58s-.93-.3-2.1-1.68l-24-29.05c-.11-.12-.78-1.15-1.17-1.15-.23,0-.4.18-.4,1.39V65.65c0,5.39,4.92,3.3,4.92,4.91,0,.3-.06.77-.61.77-1.35,0-2.91-.25-5.63-.25-1.94,0-4.85.25-5.24.25-.66,0-.72-.35-.72-.65,0-2.09,4.91.53,4.91-7.85Z"/><path class="cls-1" d="M72.3,68.94a36.73,36.73,0,0,1-2.45-5.78L58.25,32.27c-.51-1.53-.9-3.27-1.51-3.27s-.89,1-4.19,8.52L39.22,68.1c-1.45,3.42-4.08,2.4-4.08,3.66,0,.36.17.66.51.66,1.45,0,3-.23,4.46-.23s3.13.23,4.69.23c.72,0,1.5.18,1.5-.9,0-1.56-4,.24-4-4a6.77,6.77,0,0,1,.39-2.1l2.93-6.62c.56-1.26,1-2,3.27-2H61.2c1.57,0,2.15.89,2.71,2.27L65.44,63c.56,1.62,1.73,4.38,1.73,5.7,0,2.28-3.35,1.68-3.35,3.12,0,.6.89.6,1.23.6,1.51,0,3-.23,4.52-.23,2.28,0,4.57.23,6.86.23.39,0,.78,0,.78-.54C77.21,70.38,74,71.7,72.3,68.94ZM60.36,54.18h-11c-.73,0-1.12-.24-.73-1.08L54.9,37.52c.33-.72.61-.72.89,0L61.59,53C61.87,53.81,61.59,54.18,60.36,54.18Z"/><path class="cls-2" d="M4.42,14.15c0,4.81,2.87,7,6.59,7,5.19,0,6.38-3.73,6.38-7.28V4.14c0-3.06-2.57-1.8-2.57-2.94A.36.36,0,0,1,15.1.91c1.07,0,2.15.12,3.23.12.52,0,1-.12,1.52-.12a.38.38,0,0,1,.35.32c0,.84-1.62.18-1.62,2.94v9.32c0,1.47.33,8.88-7.7,8.88-7.26,0-8.64-4.4-8.64-9V3.21c0-1.77-2.24-1-2.24-2C0,1,.47.91.61.91,1.32.91,2,1,2.76,1S4.53.91,5.38.91c.14,0,.89-.06.89.29,0,.84-1.85,0-1.85,2.16Z"/><path class="cls-2" d="M25.39,6.82c0-6.24-3.34-4.5-3.34-5.61,0-.18.28-.3.41-.3.45,0,.86.12,1.3.12S24.62.91,25,.91s.55.48.72.69L38.91,17.54c.17.21.28.33.33.33s.09-.09.09-.33V5c0-3.93-3.07-2.79-3.07-3.78a.28.28,0,0,1,.31-.3c.83,0,1.63.12,2.51.12S41.2.91,41.87.91a.25.25,0,0,1,.27.27c0,.78-1.63.24-1.63,2.43V21c0,.87,0,1.29-.24,1.29s-.47-.15-1.05-.84L27.35,6.91c-.06-.06-.39-.57-.58-.57s-.19.09-.19.69V19.32C26.58,22,29,21,29,21.77c0,.15,0,.39-.31.39-.66,0-1.43-.13-2.79-.13-1,0-2.4.13-2.59.13S23,22,23,21.83c0-1,2.43.27,2.43-3.93Z"/><path class="cls-2" d="M48.16,3.49c0-2.19-2.23-1.59-2.23-2.25,0-.27,0-.33.27-.33,1,0,2,.12,3,.12C50.09,1,51,.91,51.81.91c.44,0,.52.06.52.3,0,.72-2,0-2,2.28V19.6c0,2,2.46,1.36,2.46,2.26,0,.21-.08.3-.55.3-.64,0-1.82-.13-3-.13-1.69,0-2.27.13-2.65.13S46,22,46,21.71c0-.87,2.15.12,2.15-2.86Z"/><path class="cls-2" d="M56.42,3.22C55.73,1.42,54.3,2,54.3,1.33a.37.37,0,0,1,.39-.42c.85,0,1.71.12,2.53.12S59,.91,59.4.91c.17,0,.39.12.39.3,0,.42-1.13.45-1.13,1.53a3.44,3.44,0,0,0,.25,1.17l4.82,12.36c.61,1.59.8,2.28,1.11,2.28s.35-.48.49-.84l4.8-12.87a4.7,4.7,0,0,0,.39-2c0-1.38-1.77-.81-1.77-1.5,0-.3.14-.39.42-.39.6,0,1.21.12,1.82.12,1.32,0,1.74-.12,2.12-.12s.47.12.47.39c0,.66-.77-.09-1.54,1.92L65.17,20.89c-.31.75-.5,1.74-.91,1.74s-.78-1.26-1-1.89Z"/><path class="cls-2" d="M79.48,9.64c0,1,0,1,1,1h3c2.87,0,2.13-2.4,2.79-2.4.22,0,.31.33.31.57,0,1.05-.06,2.06-.06,3,0,.78.06,1.56.06,2.38,0,.27-.11.39-.31.39-.86,0,.08-2.65-2.24-2.65H80c-.58,0-.5.51-.5,1v5.54c0,1.78-.22,2.5,2.1,2.5,6.38,0,7.32-3.1,7.68-3.1.19,0,.22.3.22.36a4.93,4.93,0,0,1-1.38,2.92c-.89,1.07-1.49,1-2.71,1-2.1,0-4.2-.19-6.3-.13-1.1,0-2.26.13-3.36.13-.25,0-.42-.06-.42-.3s.33-.3,1.22-.77c.71-.36.77-1.2.77-2.62V4.78c0-1.35,0-2.79-1.49-3-.22-.06-.83-.12-.83-.49s.17-.35,1-.35c5.21,0,6.65.12,7.81.12.55,0,3.09-.12,3.95-.12.22,0,.28.29.28.65,0,3.33-.39,3.57-.56,3.57-.66,0-.22-1.44-.66-2.13-.72-1-3.59-.84-4.69-.84-2.65,0-2.6-.12-2.6,1.89Z"/><path class="cls-2" d="M97.18,3c0-1.17.58-1.11,1.58-1.11,2.7,0,5.27,1.23,5.27,4.88S101.38,11,100.19,11s-3,.15-3-.42Zm5.44,8.27a5.78,5.78,0,0,0,3.47-5.19C106.09.31,100,.91,99.56.91c-1.44,0-3,.12-4.62.12A14.49,14.49,0,0,1,93.18.91c-.33,0-.55.18-.55.36,0,1,2.37-.21,2.37,2.67V19.22c0,2.29-2,1.87-2,2.61a.3.3,0,0,0,.27.33c1,0,2.1-.13,3.15-.13a30.6,30.6,0,0,1,3.17.13c.22,0,.47.06.47-.24,0-1-2.87-.09-2.87-2.67V12.9c0-.3-.16-.84.72-.84,3.09,0,2.68-.09,3.67,1.59l3.06,5.27c1.05,1.72,2.12,3.24,4.14,3.24.25,0,1.79,0,1.79-.36,0-.71-1.35.39-3.34-2.91Z"/><path class="cls-2" d="M111.71,16.85c-.11-.6,0-.93.3-.93s.38.36.51,1a6,6,0,0,0,5.81,4.5c2.62,0,5.19-1.59,5.19-4.74,0-5.79-11.21-2.55-11.21-10.37,0-3.81,3-5.64,6.13-5.64a9.14,9.14,0,0,1,4.64,1.08c.25,0,.31-.33.58-.33s.31.09.33.42l.42,4.08c0,.24,0,.45-.31.45s-.49-.63-.58-.9a5.29,5.29,0,0,0-5.27-3.9c-2.19,0-4.51,1.14-4.51,3.9,0,5.63,11.22,2.34,11.22,10.61,0,2.52-1.63,6.3-7.9,6.3-2,0-4.56-1.11-4.67-1.65Z"/><path class="cls-2" d="M131.15,3.49c0-2.19-2.23-1.59-2.23-2.25,0-.27.05-.33.27-.33,1,0,2,.12,3,.12.86,0,1.71-.12,2.57-.12.44,0,.52.06.52.3,0,.72-2,0-2,2.28V19.6c0,2,2.45,1.36,2.45,2.26,0,.21-.08.3-.55.3-.64,0-1.82-.13-3-.13-1.68,0-2.26.13-2.65.13S129,22,129,21.71c0-.87,2.15.12,2.15-2.86Z"/><path class="cls-2" d="M146.1,3.94c0-.21.12-1.35-.27-1.38h-4.5c-1.71,0-1.77.45-2.26,2.1-.09.3-.11.69-.47.69-.17,0-.28-.21-.28-.36l.31-2.91c0-.36,0-1.17.49-1.17,2.15,0,4.28.12,7.84.12,5,0,7.52-.12,8.07-.12s.77.18.8.87l.14,2.4c0,.3.05.66-.3.66-1,0,.47-2.28-2.34-2.28h-3.94c-1.24,0-1.1-.12-1.1,1.47V19.34c0,2.52,2.23,1.53,2.23,2.46,0,.09,0,.36-.25.36-.66,0-1.43-.13-2.23-.13a31.21,31.21,0,0,0-3.78.13c-.25,0-.34-.09-.34-.39,0-.72,2.18-.42,2.18-2.22Z"/><path class="cls-2" d="M159.57,2.8c-.72-1.29-2.07-.93-2.07-1.44,0-.21.16-.45.36-.45.74,0,1.26.12,3.14.12.91,0,1.66-.12,1.93-.12s.53,0,.53.3c0,.51-1.3.54-1.3,1.41a2.52,2.52,0,0,0,.5,1.23L166,9.64c.22.36.38.54.55.54s.3-.21.52-.6l2.85-5a3,3,0,0,0,.58-1.65c0-1.47-2.07-.84-2.07-1.56,0-.39.27-.45.58-.45.66,0,1.35.12,2,.12s1.6-.12,2.4-.12c.17,0,.31.21.31.36,0,.33-.47.45-.67.57a5.6,5.6,0,0,0-1.54,2.07l-3.87,6.54c-.44.75-.66.9-.66,1.35v7.36c0,2.61,2.26,1.77,2.26,2.7,0,.27-.24.3-.63.3s-2-.13-3-.13c-1.24,0-2.23.13-2.48.13s-.42,0-.42-.36c0-.84,2.13-.06,2.13-2.19V12.34a3.27,3.27,0,0,0-.63-1.53Z"/><path class="cls-2" d="M186.08,17.39c0-2.86.89-7.8,4.29-7.8,2.24,0,2.71,1.9,2.71,4,0,2.92-.88,8.07-4.43,8.07C186.47,21.69,186.08,19.25,186.08,17.39Zm2.57,5c3.93,0,6.28-4.11,6.28-8,0-3.1-1.54-5.44-4.53-5.44-3.85,0-6.16,4.47-6.16,8.2C184.24,20.12,185.78,22.37,188.65,22.37Z"/><path class="cls-2" d="M201.09,9.57c.33,0,.3-1.56,1.3-4.73C203.32,1.91,205.2,0,206.94,0c1.19,0,1.24.36,1.24.9,0,.74,0,1.76-.47,1.76s-.52-1.32-1.76-1.32c-2.1,0-2.74,7.15-2.74,7.72,0,.21-.11.51,0,.51H205c.39,0,.77-.06.77.57s-.38.54-.77.54h-1.43c-.75,0-.61.34-.69,1.15l-1.16,11c-.53,5.1-3.7,5.43-4,5.43a.73.73,0,0,1-.83-.78c0-.77.3-2.07.72-2.07s.3,1.54.93,1.54c.17,0,1,.12,1.22-2l1.46-14c0-.15,0-.27-.16-.27h-1.58c-.38,0-.77.06-.77-.54s.39-.57.77-.57Z"/></g></g></svg>